# Blender v2.79 (sub 0) OBJ File: ''
# www.blender.org
mtllib dome.mtl
o Dome
v 0.000000 0.980785 -0.195090
v 0.000000 0.923880 -0.382683
v 0.000000 0.831470 -0.555570
v 0.000000 0.707107 -0.707107
v 0.000000 0.555570 -0.831470
v 0.000000 0.382683 -0.923880
v 0.000000 0.195090 -0.980785
v 0.000000 0.000000 -1.000000
v 0.038060 0.980785 -0.191342
v 0.074658 0.923880 -0.375330
v 0.108386 0.831470 -0.544895
v 0.137950 0.707107 -0.693520
v 0.162212 0.555570 -0.815493
v 0.180240 0.382683 -0.906127
v 0.191342 0.195090 -0.961940
v 0.195090 0.000000 -0.980785
v 0.074658 0.980785 -0.180240
v 0.146447 0.923880 -0.353553
v 0.212608 0.831470 -0.513280
v 0.270598 0.707107 -0.653281
v 0.318190 0.555570 -0.768178
v 0.353553 0.382683 -0.853553
v 0.375330 0.195090 -0.906127
v 0.382684 0.000000 -0.923879
v 0.108387 0.980785 -0.162212
v 0.212608 0.923880 -0.318190
v 0.308658 0.831470 -0.461940
v 0.392848 0.707107 -0.587938
v 0.461940 0.555570 -0.691342
v 0.513280 0.382683 -0.768178
v 0.544895 0.195090 -0.815493
v 0.555570 0.000000 -0.831469
v 0.137950 0.980785 -0.137950
v 0.270598 0.923880 -0.270598
v 0.392848 0.831470 -0.392847
v 0.500000 0.707107 -0.500000
v 0.587938 0.555570 -0.587938
v 0.653282 0.382683 -0.653281
v 0.693520 0.195090 -0.693520
v 0.707107 0.000000 -0.707107
v 0.162212 0.980785 -0.108386
v 0.318190 0.923880 -0.212607
v 0.461940 0.831470 -0.308658
v 0.587938 0.707107 -0.392847
v 0.691342 0.555570 -0.461940
v 0.768178 0.382683 -0.513280
v 0.815493 0.195090 -0.544895
v 0.831470 0.000000 -0.555570
v 0.180240 0.980785 -0.074658
v 0.353554 0.923880 -0.146446
v 0.513280 0.831470 -0.212607
v 0.653282 0.707107 -0.270598
v 0.768178 0.555570 -0.318189
v 0.853554 0.382683 -0.353553
v 0.906128 0.195090 -0.375330
v 0.923880 0.000000 -0.382683
v 0.191342 0.980785 -0.038060
v 0.375331 0.923880 -0.074658
v 0.544895 0.831470 -0.108386
v 0.693520 0.707107 -0.137949
v 0.815493 0.555570 -0.162211
v 0.906128 0.382683 -0.180240
v 0.961940 0.195090 -0.191341
v 0.980785 0.000000 -0.195090
v 0.195091 0.980785 0.000000
v 0.382684 0.923880 0.000000
v 0.555570 0.831470 0.000000
v 0.707107 0.707107 0.000000
v 0.831470 0.555570 0.000000
v 0.923880 0.382683 0.000000
v 0.980785 0.195090 0.000000
v 1.000000 0.000000 0.000000
v 0.191342 0.980785 0.038061
v 0.375331 0.923880 0.074658
v 0.544895 0.831470 0.108387
v 0.693520 0.707107 0.137950
v 0.815493 0.555570 0.162212
v 0.906128 0.382683 0.180240
v 0.961940 0.195090 0.191342
v 0.980785 0.000000 0.195091
v 0.180240 0.980785 0.074658
v 0.353554 0.923880 0.146447
v 0.513280 0.831470 0.212608
v 0.653282 0.707107 0.270598
v 0.768178 0.555570 0.318190
v 0.853554 0.382683 0.353554
v 0.906127 0.195090 0.375331
v 0.923880 0.000000 0.382684
v 0.162212 0.980785 0.108387
v 0.318190 0.923880 0.212608
v 0.461940 0.831470 0.308659
v 0.587938 0.707107 0.392848
v 0.691342 0.555570 0.461940
v 0.768178 0.382683 0.513280
v 0.815493 0.195090 0.544895
v 0.831470 0.000000 0.555571
v 0.137950 0.980785 0.137950
v 0.270598 0.923880 0.270599
v 0.392848 0.831470 0.392848
v 0.500000 0.707107 0.500000
v 0.587938 0.555570 0.587938
v 0.653282 0.382683 0.653282
v 0.693520 0.195090 0.693520
v 0.707107 0.000000 0.707107
v 0.108386 0.980785 0.162212
v 0.212608 0.923880 0.318190
v 0.308658 0.831470 0.461940
v 0.392848 0.707107 0.587938
v 0.461940 0.555570 0.691342
v 0.513280 0.382683 0.768178
v 0.544895 0.195090 0.815493
v 0.555570 0.000000 0.831470
v 0.074658 0.980785 0.180240
v 0.146447 0.923880 0.353554
v 0.212608 0.831470 0.513280
v 0.270598 0.707107 0.653282
v 0.318190 0.555570 0.768178
v 0.353553 0.382683 0.853554
v 0.375330 0.195090 0.906128
v 0.382683 0.000000 0.923880
v 0.038060 0.980785 0.191342
v 0.074658 0.923880 0.375331
v 0.108386 0.831470 0.544896
v 0.137950 0.707107 0.693520
v 0.162212 0.555570 0.815493
v 0.180240 0.382683 0.906128
v 0.191342 0.195090 0.961940
v 0.195090 0.000000 0.980786
v -0.000000 0.980785 0.195091
v 0.000000 0.923880 0.382684
v 0.000000 0.831470 0.555571
v -0.000000 0.707107 0.707107
v -0.000000 0.555570 0.831470
v 0.000000 0.382683 0.923880
v -0.000000 0.195090 0.980785
v -0.000000 0.000000 1.000000
v -0.038060 0.980785 0.191342
v -0.074658 0.923880 0.375331
v -0.108386 0.831470 0.544896
v -0.137950 0.707107 0.693520
v -0.162212 0.555570 0.815493
v -0.180240 0.382683 0.906128
v -0.191342 0.195090 0.961940
v -0.195090 0.000000 0.980786
v -0.074658 0.980785 0.180240
v -0.146447 0.923880 0.353554
v -0.212608 0.831470 0.513280
v -0.270598 0.707107 0.653282
v -0.318190 0.555570 0.768178
v -0.353553 0.382683 0.853554
v -0.375330 0.195090 0.906127
v -0.382684 0.000000 0.923880
v -0.108386 0.980785 0.162212
v -0.212608 0.923880 0.318190
v -0.308658 0.831470 0.461940
v -0.392847 0.707107 0.587938
v -0.461940 0.555570 0.691342
v -0.513280 0.382683 0.768178
v -0.544895 0.195090 0.815493
v -0.555570 0.000000 0.831470
v -0.000000 1.000000 0.000001
v -0.137950 0.980785 0.137950
v -0.270598 0.923880 0.270598
v -0.392848 0.831470 0.392848
v -0.500000 0.707107 0.500000
v -0.587938 0.555570 0.587938
v -0.653281 0.382683 0.653282
v -0.693520 0.195090 0.693520
v -0.707107 0.000000 0.707107
v -0.162212 0.980785 0.108387
v -0.318190 0.923880 0.212608
v -0.461940 0.831470 0.308659
v -0.587938 0.707107 0.392848
v -0.691342 0.555570 0.461940
v -0.768178 0.382683 0.513280
v -0.815493 0.195090 0.544895
v -0.831470 0.000000 0.555570
v -0.180240 0.980785 0.074658
v -0.353553 0.923880 0.146447
v -0.513280 0.831470 0.212608
v -0.653281 0.707107 0.270598
v -0.768177 0.555570 0.318190
v -0.853553 0.382683 0.353554
v -0.906127 0.195090 0.375330
v -0.923880 0.000000 0.382684
v -0.191342 0.980785 0.038061
v -0.375330 0.923880 0.074658
v -0.544895 0.831470 0.108387
v -0.693520 0.707107 0.137950
v -0.815493 0.555570 0.162212
v -0.906127 0.382683 0.180240
v -0.961939 0.195090 0.191342
v -0.980785 0.000000 0.195090
v -0.195090 0.980785 0.000000
v -0.382683 0.923880 0.000000
v -0.555570 0.831470 0.000000
v -0.707107 0.707107 0.000000
v -0.831469 0.555570 0.000000
v -0.923879 0.382683 0.000000
v -0.980785 0.195090 0.000000
v -1.000000 0.000000 0.000000
v -0.191342 0.980785 -0.038060
v -0.375330 0.923880 -0.074658
v -0.544895 0.831470 -0.108386
v -0.693520 0.707107 -0.137949
v -0.815493 0.555570 -0.162211
v -0.906127 0.382683 -0.180240
v -0.961939 0.195090 -0.191342
v -0.980785 0.000000 -0.195090
v -0.180240 0.980785 -0.074658
v -0.353553 0.923880 -0.146446
v -0.513280 0.831470 -0.212607
v -0.653281 0.707107 -0.270598
v -0.768177 0.555570 -0.318189
v -0.853553 0.382683 -0.353553
v -0.906127 0.195090 -0.375330
v -0.923879 0.000000 -0.382683
v -0.162212 0.980785 -0.108386
v -0.318190 0.923880 -0.212607
v -0.461940 0.831470 -0.308658
v -0.587938 0.707107 -0.392847
v -0.691341 0.555570 -0.461939
v -0.768178 0.382683 -0.513280
v -0.815493 0.195090 -0.544895
v -0.831469 0.000000 -0.555570
v -0.137950 0.980785 -0.137949
v -0.270598 0.923880 -0.270598
v -0.392847 0.831470 -0.392847
v -0.500000 0.707107 -0.500000
v -0.587937 0.555570 -0.587937
v -0.653281 0.382683 -0.653281
v -0.693519 0.195090 -0.693519
v -0.707106 0.000000 -0.707106
v -0.108386 0.980785 -0.162211
v -0.212607 0.923880 -0.318189
v -0.308658 0.831470 -0.461939
v -0.392847 0.707107 -0.587937
v -0.461939 0.555570 -0.691341
v -0.513280 0.382683 -0.768177
v -0.544895 0.195090 -0.815492
v -0.555570 0.000000 -0.831469
v -0.074658 0.980785 -0.180240
v -0.146447 0.923880 -0.353553
v -0.212607 0.831470 -0.513280
v -0.270598 0.707107 -0.653281
v -0.318189 0.555570 -0.768177
v -0.353553 0.382683 -0.853553
v -0.375330 0.195090 -0.906127
v -0.382683 0.000000 -0.923879
v -0.038060 0.980785 -0.191342
v -0.074658 0.923880 -0.375330
v -0.108386 0.831470 -0.544895
v -0.137950 0.707107 -0.693520
v -0.162211 0.555570 -0.815492
v -0.180240 0.382683 -0.906127
v -0.191341 0.195090 -0.961939
v -0.195090 0.000000 -0.980785
vn 0.0938 0.2890 -0.9527
vn 0.0975 0.0975 -0.9904
vn 0.0097 0.9951 -0.0980
vn 0.0286 0.9565 -0.2902
vn 0.0464 0.8810 -0.4709
vn 0.0624 0.7715 -0.6332
vn 0.0759 0.6326 -0.7708
vn 0.0865 0.4696 -0.8786
vn 0.2563 0.4696 -0.8448
vn 0.2779 0.2890 -0.9161
vn 0.2889 0.0975 -0.9524
vn 0.0286 0.9951 -0.0942
vn 0.0846 0.9565 -0.2790
vn 0.1374 0.8810 -0.4528
vn 0.1847 0.7715 -0.6088
vn 0.2248 0.6326 -0.7412
vn 0.2230 0.8810 -0.4173
vn 0.2999 0.7715 -0.5611
vn 0.3651 0.6326 -0.6831
vn 0.4162 0.4696 -0.7786
vn 0.4513 0.2890 -0.8443
vn 0.4691 0.0975 -0.8777
vn 0.0464 0.9951 -0.0869
vn 0.1374 0.9565 -0.2571
vn 0.6073 0.2890 -0.7400
vn 0.6314 0.0976 -0.7693
vn 0.0625 0.9951 -0.0761
vn 0.1850 0.9565 -0.2254
vn 0.3002 0.8810 -0.3658
vn 0.4036 0.7715 -0.4918
vn 0.4913 0.6326 -0.5987
vn 0.5601 0.4696 -0.6825
vn 0.3658 0.8810 -0.3002
vn 0.4918 0.7715 -0.4036
vn 0.5987 0.6326 -0.4913
vn 0.6825 0.4696 -0.5601
vn 0.7400 0.2890 -0.6073
vn 0.7693 0.0975 -0.6314
vn 0.0761 0.9951 -0.0625
vn 0.2254 0.9565 -0.1850
vn 0.8443 0.2890 -0.4513
vn 0.8777 0.0976 -0.4691
vn 0.0869 0.9951 -0.0464
vn 0.2571 0.9565 -0.1374
vn 0.4173 0.8810 -0.2231
vn 0.5611 0.7715 -0.2999
vn 0.6831 0.6326 -0.3651
vn 0.7786 0.4696 -0.4162
vn 0.6088 0.7715 -0.1847
vn 0.7412 0.6326 -0.2248
vn 0.8448 0.4696 -0.2563
vn 0.9161 0.2890 -0.2779
vn 0.9524 0.0976 -0.2889
vn 0.0942 0.9951 -0.0286
vn 0.2790 0.9565 -0.0846
vn 0.4528 0.8810 -0.1374
vn 0.9904 0.0976 -0.0975
vn 0.0980 0.9951 -0.0097
vn 0.2902 0.9565 -0.0286
vn 0.4709 0.8810 -0.0464
vn 0.6332 0.7715 -0.0624
vn 0.7708 0.6326 -0.0759
vn 0.8786 0.4696 -0.0865
vn 0.9527 0.2890 -0.0938
vn 0.7708 0.6326 0.0759
vn 0.8786 0.4696 0.0865
vn 0.9527 0.2890 0.0938
vn 0.9904 0.0976 0.0975
vn 0.0980 0.9951 0.0097
vn 0.2902 0.9565 0.0286
vn 0.4709 0.8810 0.0464
vn 0.6332 0.7715 0.0624
vn 0.0942 0.9951 0.0286
vn 0.2790 0.9565 0.0846
vn 0.4528 0.8810 0.1374
vn 0.6088 0.7715 0.1847
vn 0.7412 0.6326 0.2248
vn 0.8448 0.4696 0.2563
vn 0.9161 0.2890 0.2779
vn 0.9524 0.0976 0.2889
vn 0.6831 0.6326 0.3651
vn 0.7786 0.4696 0.4162
vn 0.8443 0.2890 0.4513
vn 0.8777 0.0976 0.4691
vn 0.0869 0.9951 0.0464
vn 0.2571 0.9565 0.1374
vn 0.4173 0.8810 0.2231
vn 0.5611 0.7715 0.2999
vn 0.2254 0.9565 0.1850
vn 0.3658 0.8810 0.3002
vn 0.4918 0.7715 0.4036
vn 0.5987 0.6326 0.4913
vn 0.6825 0.4696 0.5601
vn 0.7400 0.2890 0.6073
vn 0.7693 0.0976 0.6314
vn 0.0761 0.9951 0.0625
vn 0.5601 0.4696 0.6825
vn 0.6073 0.2890 0.7400
vn 0.6314 0.0976 0.7693
vn 0.0625 0.9951 0.0761
vn 0.1850 0.9565 0.2254
vn 0.3002 0.8810 0.3658
vn 0.4036 0.7715 0.4918
vn 0.4913 0.6326 0.5987
vn 0.1374 0.9565 0.2571
vn 0.2230 0.8810 0.4173
vn 0.2999 0.7715 0.5611
vn 0.3651 0.6326 0.6831
vn 0.4162 0.4696 0.7786
vn 0.4513 0.2890 0.8443
vn 0.4691 0.0976 0.8777
vn 0.0464 0.9951 0.0869
vn 0.2563 0.4696 0.8448
vn 0.2779 0.2890 0.9161
vn 0.2889 0.0976 0.9524
vn 0.0286 0.9951 0.0942
vn 0.0846 0.9565 0.2790
vn 0.1374 0.8810 0.4528
vn 0.1847 0.7715 0.6088
vn 0.2248 0.6326 0.7412
vn 0.0464 0.8810 0.4709
vn 0.0624 0.7715 0.6332
vn 0.0759 0.6326 0.7708
vn 0.0865 0.4696 0.8786
vn 0.0938 0.2890 0.9527
vn 0.0975 0.0976 0.9904
vn 0.0097 0.9951 0.0980
vn 0.0286 0.9565 0.2902
vn -0.0938 0.2890 0.9527
vn -0.0976 0.0976 0.9904
vn -0.0097 0.9951 0.0980
vn -0.0286 0.9565 0.2902
vn -0.0464 0.8810 0.4709
vn -0.0624 0.7715 0.6332
vn -0.0759 0.6326 0.7708
vn -0.0865 0.4696 0.8786
vn -0.1847 0.7715 0.6088
vn -0.2248 0.6326 0.7412
vn -0.2563 0.4696 0.8448
vn -0.2779 0.2890 0.9161
vn -0.2889 0.0976 0.9524
vn -0.0286 0.9951 0.0942
vn -0.0846 0.9565 0.2790
vn -0.1374 0.8810 0.4528
vn -0.4691 0.0976 0.8777
vn -0.0464 0.9951 0.0869
vn -0.1374 0.9565 0.2571
vn -0.2230 0.8810 0.4173
vn -0.2999 0.7715 0.5611
vn -0.3651 0.6326 0.6831
vn -0.4162 0.4696 0.7786
vn -0.4513 0.2890 0.8443
vn -0.4036 0.7715 0.4918
vn -0.4913 0.6326 0.5987
vn -0.5601 0.4696 0.6825
vn -0.6073 0.2890 0.7400
vn -0.6314 0.0976 0.7693
vn -0.0625 0.9951 0.0761
vn -0.1850 0.9565 0.2254
vn -0.3002 0.8810 0.3658
vn -0.7693 0.0976 0.6314
vn -0.0761 0.9951 0.0625
vn -0.2254 0.9565 0.1850
vn -0.3658 0.8810 0.3002
vn -0.4918 0.7715 0.4036
vn -0.5987 0.6326 0.4913
vn -0.6825 0.4696 0.5601
vn -0.7400 0.2890 0.6073
vn -0.6831 0.6326 0.3651
vn -0.7786 0.4696 0.4162
vn -0.8443 0.2890 0.4513
vn -0.8777 0.0976 0.4691
vn -0.0869 0.9951 0.0464
vn -0.2571 0.9565 0.1374
vn -0.4173 0.8810 0.2231
vn -0.5611 0.7715 0.2999
vn -0.0942 0.9951 0.0286
vn -0.2790 0.9565 0.0846
vn -0.4528 0.8810 0.1374
vn -0.6088 0.7715 0.1847
vn -0.7412 0.6326 0.2248
vn -0.8448 0.4696 0.2563
vn -0.9161 0.2890 0.2779
vn -0.9524 0.0976 0.2889
vn -0.7708 0.6326 0.0759
vn -0.8786 0.4696 0.0865
vn -0.9527 0.2890 0.0938
vn -0.9904 0.0976 0.0975
vn -0.0980 0.9951 0.0097
vn -0.2902 0.9565 0.0286
vn -0.4709 0.8810 0.0464
vn -0.6332 0.7715 0.0624
vn -0.2902 0.9565 -0.0286
vn -0.4709 0.8810 -0.0464
vn -0.6332 0.7715 -0.0624
vn -0.7708 0.6326 -0.0759
vn -0.8786 0.4696 -0.0865
vn -0.9527 0.2890 -0.0938
vn -0.9904 0.0976 -0.0976
vn -0.0980 0.9951 -0.0097
vn -0.8448 0.4696 -0.2563
vn -0.9161 0.2890 -0.2779
vn -0.9524 0.0976 -0.2889
vn -0.0942 0.9951 -0.0286
vn -0.2790 0.9565 -0.0846
vn -0.4528 0.8810 -0.1374
vn -0.6088 0.7715 -0.1847
vn -0.7412 0.6326 -0.2248
vn -0.4173 0.8810 -0.2231
vn -0.5611 0.7715 -0.2999
vn -0.6831 0.6326 -0.3651
vn -0.7786 0.4696 -0.4162
vn -0.8443 0.2890 -0.4513
vn -0.8777 0.0976 -0.4691
vn -0.0869 0.9951 -0.0464
vn -0.2571 0.9565 -0.1374
vn -0.7400 0.2890 -0.6073
vn -0.7693 0.0976 -0.6314
vn -0.0761 0.9951 -0.0625
vn -0.2254 0.9565 -0.1850
vn -0.3658 0.8810 -0.3002
vn -0.4918 0.7715 -0.4036
vn -0.5987 0.6326 -0.4913
vn -0.6825 0.4696 -0.5601
vn -0.3002 0.8810 -0.3658
vn -0.4036 0.7715 -0.4918
vn -0.4913 0.6326 -0.5987
vn -0.5601 0.4696 -0.6825
vn -0.6073 0.2890 -0.7400
vn -0.6314 0.0976 -0.7693
vn -0.0625 0.9951 -0.0761
vn -0.1850 0.9565 -0.2254
vn -0.4513 0.2890 -0.8443
vn -0.4691 0.0976 -0.8777
vn -0.0464 0.9951 -0.0869
vn -0.1374 0.9565 -0.2571
vn -0.2230 0.8810 -0.4173
vn -0.2999 0.7715 -0.5611
vn -0.3651 0.6326 -0.6831
vn -0.4162 0.4696 -0.7786
vn -0.1847 0.7715 -0.6088
vn -0.2248 0.6326 -0.7412
vn -0.2563 0.4696 -0.8448
vn -0.2779 0.2890 -0.9161
vn -0.2889 0.0976 -0.9524
vn -0.0286 0.9951 -0.0942
vn -0.0846 0.9565 -0.2790
vn -0.1374 0.8810 -0.4528
vn -0.0976 0.0976 -0.9904
vn -0.0097 0.9951 -0.0980
vn 0.0000 -1.0000 -0.0000
vn -0.0286 0.9565 -0.2902
vn -0.0464 0.8810 -0.4709
vn -0.0624 0.7715 -0.6332
vn -0.0759 0.6326 -0.7708
vn -0.0865 0.4696 -0.8786
vn -0.0938 0.2890 -0.9527
usemtl None
s off
f 7//1 6//1 14//1 15//1
f 8//2 7//2 15//2 16//2
f 1//3 161//3 9//3
f 2//4 1//4 9//4 10//4
f 3//5 2//5 10//5 11//5
f 4//6 3//6 11//6 12//6
f 5//7 4//7 12//7 13//7
f 6//8 5//8 13//8 14//8
f 14//9 13//9 21//9 22//9
f 15//10 14//10 22//10 23//10
f 16//11 15//11 23//11 24//11
f 9//12 161//12 17//12
f 10//13 9//13 17//13 18//13
f 11//14 10//14 18//14 19//14
f 12//15 11//15 19//15 20//15
f 13//16 12//16 20//16 21//16
f 19//17 18//17 26//17 27//17
f 20//18 19//18 27//18 28//18
f 21//19 20//19 28//19 29//19
f 22//20 21//20 29//20 30//20
f 23//21 22//21 30//21 31//21
f 24//22 23//22 31//22 32//22
f 17//23 161//23 25//23
f 18//24 17//24 25//24 26//24
f 31//25 30//25 38//25 39//25
f 32//26 31//26 39//26 40//26
f 25//27 161//27 33//27
f 26//28 25//28 33//28 34//28
f 27//29 26//29 34//29 35//29
f 28//30 27//30 35//30 36//30
f 29//31 28//31 36//31 37//31
f 30//32 29//32 37//32 38//32
f 35//33 34//33 42//33 43//33
f 36//34 35//34 43//34 44//34
f 37//35 36//35 44//35 45//35
f 38//36 37//36 45//36 46//36
f 39//37 38//37 46//37 47//37
f 40//38 39//38 47//38 48//38
f 33//39 161//39 41//39
f 34//40 33//40 41//40 42//40
f 47//41 46//41 54//41 55//41
f 48//42 47//42 55//42 56//42
f 41//43 161//43 49//43
f 42//44 41//44 49//44 50//44
f 43//45 42//45 50//45 51//45
f 44//46 43//46 51//46 52//46
f 45//47 44//47 52//47 53//47
f 46//48 45//48 53//48 54//48
f 52//49 51//49 59//49 60//49
f 53//50 52//50 60//50 61//50
f 54//51 53//51 61//51 62//51
f 55//52 54//52 62//52 63//52
f 56//53 55//53 63//53 64//53
f 49//54 161//54 57//54
f 50//55 49//55 57//55 58//55
f 51//56 50//56 58//56 59//56
f 64//57 63//57 71//57 72//57
f 57//58 161//58 65//58
f 58//59 57//59 65//59 66//59
f 59//60 58//60 66//60 67//60
f 60//61 59//61 67//61 68//61
f 61//62 60//62 68//62 69//62
f 62//63 61//63 69//63 70//63
f 63//64 62//64 70//64 71//64
f 69//65 68//65 76//65 77//65
f 70//66 69//66 77//66 78//66
f 71//67 70//67 78//67 79//67
f 72//68 71//68 79//68 80//68
f 65//69 161//69 73//69
f 66//70 65//70 73//70 74//70
f 67//71 66//71 74//71 75//71
f 68//72 67//72 75//72 76//72
f 73//73 161//73 81//73
f 74//74 73//74 81//74 82//74
f 75//75 74//75 82//75 83//75
f 76//76 75//76 83//76 84//76
f 77//77 76//77 84//77 85//77
f 78//78 77//78 85//78 86//78
f 79//79 78//79 86//79 87//79
f 80//80 79//80 87//80 88//80
f 85//81 84//81 92//81 93//81
f 86//82 85//82 93//82 94//82
f 87//83 86//83 94//83 95//83
f 88//84 87//84 95//84 96//84
f 81//85 161//85 89//85
f 82//86 81//86 89//86 90//86
f 83//87 82//87 90//87 91//87
f 84//88 83//88 91//88 92//88
f 90//89 89//89 97//89 98//89
f 91//90 90//90 98//90 99//90
f 92//91 91//91 99//91 100//91
f 93//92 92//92 100//92 101//92
f 94//93 93//93 101//93 102//93
f 95//94 94//94 102//94 103//94
f 96//95 95//95 103//95 104//95
f 89//96 161//96 97//96
f 102//97 101//97 109//97 110//97
f 103//98 102//98 110//98 111//98
f 104//99 103//99 111//99 112//99
f 97//100 161//100 105//100
f 98//101 97//101 105//101 106//101
f 99//102 98//102 106//102 107//102
f 100//103 99//103 107//103 108//103
f 101//104 100//104 108//104 109//104
f 106//105 105//105 113//105 114//105
f 107//106 106//106 114//106 115//106
f 108//107 107//107 115//107 116//107
f 109//108 108//108 116//108 117//108
f 110//109 109//109 117//109 118//109
f 111//110 110//110 118//110 119//110
f 112//111 111//111 119//111 120//111
f 105//112 161//112 113//112
f 118//113 117//113 125//113 126//113
f 119//114 118//114 126//114 127//114
f 120//115 119//115 127//115 128//115
f 113//116 161//116 121//116
f 114//117 113//117 121//117 122//117
f 115//118 114//118 122//118 123//118
f 116//119 115//119 123//119 124//119
f 117//120 116//120 124//120 125//120
f 123//121 122//121 130//121 131//121
f 124//122 123//122 131//122 132//122
f 125//123 124//123 132//123 133//123
f 126//124 125//124 133//124 134//124
f 127//125 126//125 134//125 135//125
f 128//126 127//126 135//126 136//126
f 121//127 161//127 129//127
f 122//128 121//128 129//128 130//128
f 135//129 134//129 142//129 143//129
f 136//130 135//130 143//130 144//130
f 129//131 161//131 137//131
f 130//132 129//132 137//132 138//132
f 131//133 130//133 138//133 139//133
f 132//134 131//134 139//134 140//134
f 133//135 132//135 140//135 141//135
f 134//136 133//136 141//136 142//136
f 140//137 139//137 147//137 148//137
f 141//138 140//138 148//138 149//138
f 142//139 141//139 149//139 150//139
f 143//140 142//140 150//140 151//140
f 144//141 143//141 151//141 152//141
f 137//142 161//142 145//142
f 138//143 137//143 145//143 146//143
f 139//144 138//144 146//144 147//144
f 152//145 151//145 159//145 160//145
f 145//146 161//146 153//146
f 146//147 145//147 153//147 154//147
f 147//148 146//148 154//148 155//148
f 148//149 147//149 155//149 156//149
f 149//150 148//150 156//150 157//150
f 150//151 149//151 157//151 158//151
f 151//152 150//152 158//152 159//152
f 156//153 155//153 164//153 165//153
f 157//154 156//154 165//154 166//154
f 158//155 157//155 166//155 167//155
f 159//156 158//156 167//156 168//156
f 160//157 159//157 168//157 169//157
f 153//158 161//158 162//158
f 154//159 153//159 162//159 163//159
f 155//160 154//160 163//160 164//160
f 169//161 168//161 176//161 177//161
f 162//162 161//162 170//162
f 163//163 162//163 170//163 171//163
f 164//164 163//164 171//164 172//164
f 165//165 164//165 172//165 173//165
f 166//166 165//166 173//166 174//166
f 167//167 166//167 174//167 175//167
f 168//168 167//168 175//168 176//168
f 174//169 173//169 181//169 182//169
f 175//170 174//170 182//170 183//170
f 176//171 175//171 183//171 184//171
f 177//172 176//172 184//172 185//172
f 170//173 161//173 178//173
f 171//174 170//174 178//174 179//174
f 172//175 171//175 179//175 180//175
f 173//176 172//176 180//176 181//176
f 178//177 161//177 186//177
f 179//178 178//178 186//178 187//178
f 180//179 179//179 187//179 188//179
f 181//180 180//180 188//180 189//180
f 182//181 181//181 189//181 190//181
f 183//182 182//182 190//182 191//182
f 184//183 183//183 191//183 192//183
f 185//184 184//184 192//184 193//184
f 190//185 189//185 197//185 198//185
f 191//186 190//186 198//186 199//186
f 192//187 191//187 199//187 200//187
f 193//188 192//188 200//188 201//188
f 186//189 161//189 194//189
f 187//190 186//190 194//190 195//190
f 188//191 187//191 195//191 196//191
f 189//192 188//192 196//192 197//192
f 195//193 194//193 202//193 203//193
f 196//194 195//194 203//194 204//194
f 197//195 196//195 204//195 205//195
f 198//196 197//196 205//196 206//196
f 199//197 198//197 206//197 207//197
f 200//198 199//198 207//198 208//198
f 201//199 200//199 208//199 209//199
f 194//200 161//200 202//200
f 207//201 206//201 214//201 215//201
f 208//202 207//202 215//202 216//202
f 209//203 208//203 216//203 217//203
f 202//204 161//204 210//204
f 203//205 202//205 210//205 211//205
f 204//206 203//206 211//206 212//206
f 205//207 204//207 212//207 213//207
f 206//208 205//208 213//208 214//208
f 212//209 211//209 219//209 220//209
f 213//210 212//210 220//210 221//210
f 214//211 213//211 221//211 222//211
f 215//212 214//212 222//212 223//212
f 216//213 215//213 223//213 224//213
f 217//214 216//214 224//214 225//214
f 210//215 161//215 218//215
f 211//216 210//216 218//216 219//216
f 224//217 223//217 231//217 232//217
f 225//218 224//218 232//218 233//218
f 218//219 161//219 226//219
f 219//220 218//220 226//220 227//220
f 220//221 219//221 227//221 228//221
f 221//222 220//222 228//222 229//222
f 222//223 221//223 229//223 230//223
f 223//224 222//224 230//224 231//224
f 228//225 227//225 235//225 236//225
f 229//226 228//226 236//226 237//226
f 230//227 229//227 237//227 238//227
f 231//228 230//228 238//228 239//228
f 232//229 231//229 239//229 240//229
f 233//230 232//230 240//230 241//230
f 226//231 161//231 234//231
f 227//232 226//232 234//232 235//232
f 240//233 239//233 247//233 248//233
f 241//234 240//234 248//234 249//234
f 234//235 161//235 242//235
f 235//236 234//236 242//236 243//236
f 236//237 235//237 243//237 244//237
f 237//238 236//238 244//238 245//238
f 238//239 237//239 245//239 246//239
f 239//240 238//240 246//240 247//240
f 245//241 244//241 252//241 253//241
f 246//242 245//242 253//242 254//242
f 247//243 246//243 254//243 255//243
f 248//244 247//244 255//244 256//244
f 249//245 248//245 256//245 257//245
f 242//246 161//246 250//246
f 243//247 242//247 250//247 251//247
f 244//248 243//248 251//248 252//248
f 257//249 256//249 7//249 8//249
f 250//250 161//250 1//250
f 16//251 24//251 32//251 40//251 48//251 56//251 64//251 72//251 80//251 88//251 96//251 104//251 112//251 120//251 128//251 136//251 144//251 152//251 160//251 169//251 177//251 185//251 193//251 201//251 209//251 217//251 225//251 233//251 241//251 249//251 257//251 8//251
f 251//252 250//252 1//252 2//252
f 252//253 251//253 2//253 3//253
f 253//254 252//254 3//254 4//254
f 254//255 253//255 4//255 5//255
f 255//256 254//256 5//256 6//256
f 256//257 255//257 6//257 7//257
